<svg id="svg" xmlns="http://www.w3.org/2000/svg" width="89.347" height="76.969" viewBox="0 0 89.347 76.969"> <path id="Path_77" data-name="Path 77" d="M121.094,0H92.544L88.96,53.221l32.134-3.584Zm0,0" transform="translate(-31.747 0)" fill="#005fe1"/> <path id="Path_78" data-name="Path 78" d="M84,0H66.717L63.134,53.221,84,49.636Zm0,0" transform="translate(-22.268 0)" fill="#03232e"/> <path id="Path_79" data-name="Path 79" d="M0,0V49.636l45.835,3.584V0ZM0,0" transform="translate(0 0)" fill="#07485e"/> <path id="Path_80" data-name="Path 80" d="M72.754,32.086h5.864v5.371H72.754Zm0,0" transform="translate(-25.382 -11.197)" fill="#00cc76"/> <path id="Path_81" data-name="Path 81" d="M12.8,32.086H47.213v5.371H12.8Zm0,0" transform="translate(-4.233 -11.197)" fill="#00ff94"/> <path id="Path_82" data-name="Path 82" d="M12.8,15.022h5.864v5.371H12.8Zm0,0" transform="translate(-4.233 -4.969)" fill="#00ff94"/> <path id="Path_83" data-name="Path 83" d="M12.8,49.152h5.864v5.371H12.8Zm0,0" transform="translate(-4.233 -17.152)" fill="#00ff94"/> <g id="Group_335" data-name="Group 335" transform="translate(69.362 10.053)"> <path id="Path_84" data-name="Path 84" d="M107.114,15.022h11.42v5.371h-11.42Zm0,0" transform="translate(-107.114 -15.022)" fill="#03232e"/> <path id="Path_85" data-name="Path 85" d="M107.114,32.086h11.42v5.371h-11.42Zm0,0" transform="translate(-107.114 -20.666)" fill="#03232e"/> <path id="Path_86" data-name="Path 86" d="M107.114,49.152h11.42v5.371h-11.42Zm0,0" transform="translate(-107.114 -26.311)" fill="#03232e"/> </g> <path id="Path_87" data-name="Path 87" d="M81.944,106.572V95.151L63.134,91.567l3.584,15Zm0,0" transform="translate(-22.229 -32.288)" fill="#87a0af"/> <path id="Path_88" data-name="Path 88" d="M45.736,106.572H60.963v-15L45.736,95.151Zm0,0" transform="translate(-16.058 -32.288)" fill="#b4d2d7"/> <path id="Path_89" data-name="Path 89" d="M91.4,115.345v-5.371H67.6l-1.792,2.686,1.792,2.686Zm0,0" transform="translate(-23.316 -38.376)" fill="#b4d2d7"/> <path id="Path_90" data-name="Path 90" d="M32.937,109.974H56.729v5.371H32.937Zm0,0" transform="translate(-11.648 -38.376)" fill="#e1ebf0"/> <path id="Path_91" data-name="Path 91" d="M66.717,74.169l-3.584,7.614L66.717,89.4h45.835V74.169Zm0,0" transform="translate(-23.204 -26.09)" fill="#b4d2d7"/> <path id="Path_92" data-name="Path 92" d="M0,74.169H45.835V89.4H0Zm0,0" transform="translate(0 -26.09)" fill="#e1ebf0"/> <path id="Path_93" data-name="Path 93" d="M76.321,15.022H67.6l-1.792,2.686L67.6,20.393h8.718Zm0,0" transform="translate(-23.028 -4.969)" fill="#00cc76"/> <path id="Path_94" data-name="Path 94" d="M76.321,49.152H67.6l-1.792,2.686L67.6,54.523h8.718Zm0,0" transform="translate(-23.028 -17.152)" fill="#00cc76"/> <path id="Path_95" data-name="Path 95" d="M30.093,15.022h25.7v5.371h-25.7Zm0,0" transform="translate(-10.663 -4.969)" fill="#00ff94"/> <path id="Path_96" data-name="Path 96" d="M30.093,49.152h25.7v5.371h-25.7Zm0,0" transform="translate(-10.663 -17.152)" fill="#00ff94"/> </svg>
